<svg width="32" height="31" viewBox="0 0 32 31" fill="none" xmlns="http://www.w3.org/2000/svg">
<g clip-path="url(#clip0_38_59)">
<path d="M7.32458 2.57302C7.20725 2.42589 7.05914 2.30478 6.8901 2.21773C6.72106 2.13069 6.53495 2.0797 6.34414 2.06815C6.15334 2.05661 5.96219 2.08477 5.7834 2.15077C5.60462 2.21677 5.44229 2.3191 5.30719 2.45096L3.25203 4.45627C2.29203 5.39402 1.93824 6.72121 2.35762 7.88565C4.09822 12.7053 6.92964 17.0812 10.6418 20.6886C14.3426 24.3073 18.8315 27.0673 23.7758 28.7641C24.9703 29.173 26.3318 28.8281 27.2938 27.8923L29.3489 25.8889C29.4842 25.7572 29.5892 25.599 29.6569 25.4247C29.7246 25.2504 29.7535 25.0641 29.7416 24.8781C29.7298 24.6921 29.6775 24.5106 29.5882 24.3459C29.4989 24.1811 29.3746 24.0367 29.2237 23.9223L24.6384 20.4465C24.4771 20.3245 24.2896 20.2399 24.0899 20.199C23.8902 20.158 23.6835 20.1618 23.4856 20.2101L19.1328 21.2699C18.5518 21.4115 17.9431 21.4039 17.3659 21.2481C16.7888 21.0923 16.2628 20.7934 15.8394 20.3806L10.9579 15.6201C10.5341 15.2075 10.2271 14.695 10.0669 14.1323C9.90664 13.5697 9.89862 12.9762 10.0436 12.4097L11.1328 8.16658C11.1823 7.9736 11.1862 7.77218 11.1442 7.57751C11.1022 7.38285 11.0154 7.20002 10.8903 7.04283L7.32458 2.57302ZM3.80657 0.990085C4.15438 0.650924 4.57224 0.387775 5.03238 0.21811C5.49253 0.0484444 5.98444 -0.023854 6.47545 0.006015C6.96646 0.0358841 7.44533 0.167237 7.88027 0.391352C8.31521 0.615467 8.69626 0.927216 8.99812 1.3059L12.5638 5.77377C13.2177 6.59333 13.4483 7.6609 13.1899 8.6684L12.1027 12.9115C12.0465 13.1313 12.0495 13.3615 12.1115 13.5798C12.1735 13.7981 12.2924 13.997 12.4565 14.1573L17.34 18.9178C17.5046 19.0781 17.7091 19.1941 17.9334 19.2546C18.1577 19.315 18.3942 19.3178 18.62 19.2626L22.9708 18.2028C23.4808 18.0785 24.0132 18.0689 24.5276 18.1746C25.0421 18.2803 25.5251 18.4987 25.9402 18.8131L30.5236 22.289C32.1713 23.5387 32.3223 25.9121 30.8476 27.3478L28.7924 29.3512C27.3216 30.785 25.1233 31.4146 23.0741 30.7113C17.8293 28.9124 13.0672 25.9855 9.14123 22.1476C5.20441 18.3211 2.20181 13.6797 0.356133 8.56765C-0.36337 6.57202 0.282592 4.42721 1.7534 2.99346L3.80855 0.990085H3.80657Z" fill="black"/>
</g>
<defs>
<clipPath id="clip0_38_59">
<rect width="31.8012" height="31" fill="white" transform="translate(0.0620117)"/>
</clipPath>
</defs>
</svg>
