<svg width="42" height="30" viewBox="0 0 42 30" fill="none" xmlns="http://www.w3.org/2000/svg">
<path d="M41.8007 3.89799C40.2524 4.48879 38.6104 4.8769 36.9291 5.04949C38.7006 4.13448 40.026 2.69529 40.6584 0.999994C38.9947 1.85399 37.1706 2.45249 35.2715 2.77624C33.9944 1.59776 32.3018 0.816179 30.4566 0.553017C28.6114 0.289855 26.7171 0.559853 25.0682 1.32104C23.4193 2.08222 22.1082 3.29194 21.3386 4.76213C20.5691 6.23232 20.3843 7.88061 20.8129 9.45074C17.4386 9.30513 14.1375 8.54902 11.124 7.2315C8.11047 5.91399 5.45194 4.06454 3.32103 1.80324C2.56683 2.92053 2.1705 4.19064 2.17262 5.48349C2.17262 8.02099 3.67204 10.2627 5.94653 11.5752C4.59932 11.5386 3.28176 11.2248 2.10363 10.66V10.7492C2.10357 12.4395 2.78138 14.0778 4.0221 15.3862C5.26282 16.6946 6.99007 17.5925 8.91088 17.9277C7.6603 18.2204 6.34887 18.2635 5.0761 18.0537C5.61768 19.5087 6.67334 20.7811 8.09522 21.6927C9.5171 22.6043 11.234 23.1095 13.0054 23.1375C11.2449 24.33 9.2292 25.2116 7.07345 25.7316C4.9177 26.2517 2.66422 26.4002 0.441895 26.1685C4.32075 28.3199 8.83602 29.4621 13.4477 29.4585C29.0587 29.4585 37.5926 18.3057 37.5926 8.63349C37.5926 8.31849 37.5845 7.99999 37.5683 7.68674C39.2288 6.65137 40.662 5.36723 41.8007 3.89799Z" fill="black"/>
</svg>
