<svg width="101" height="96" viewBox="0 0 101 96" fill="none" xmlns="http://www.w3.org/2000/svg">
<path d="M98.4476 47.2207L55.8078 4.22578L52.9497 1.34238C52.2985 0.689737 51.4178 0.323448 50.4999 0.323448C49.5819 0.323448 48.7013 0.689737 48.0501 1.34238L2.55212 47.2207C1.88483 47.8913 1.35747 48.6899 1.00115 49.5695C0.644831 50.449 0.466781 51.3917 0.477508 52.3418C0.521649 56.2605 3.75495 59.3889 7.63932 59.3889H12.3293V95.6484H88.6705V59.3889H93.4597C95.3467 59.3889 97.1234 58.643 98.4587 57.2959C99.1161 56.6347 99.6371 55.8486 99.9913 54.9829C100.345 54.1172 100.526 53.1893 100.522 52.2527C100.522 50.3601 99.7829 48.5678 98.4476 47.2207ZM56.6796 87.6328H44.3202V64.9219H56.6796V87.6328ZM80.7252 51.3732V87.6328H63.7421V62.25C63.7421 59.7896 61.7668 57.7969 59.328 57.7969H41.6717C39.233 57.7969 37.2577 59.7896 37.2577 62.25V87.6328H20.2746V51.3732H9.68083L50.5109 10.2152L53.06 12.7869L91.3299 51.3732H80.7252Z" fill="black"/>
</svg>
