<svg width="35" height="31" viewBox="0 0 35 31" fill="none" xmlns="http://www.w3.org/2000/svg">
<path d="M10.5836 0.083374H24.8445C30.2772 0.083374 34.6913 4.09171 34.6913 9.02504V21.975C34.6913 24.3465 33.6538 26.6209 31.8072 28.2978C29.9606 29.9746 27.456 30.9167 24.8445 30.9167H10.5836C5.1509 30.9167 0.736816 26.9084 0.736816 21.975V9.02504C0.736816 6.65356 1.77424 4.37922 3.62087 2.70233C5.46751 1.02544 7.97208 0.083374 10.5836 0.083374ZM10.2441 3.16671C8.62311 3.16671 7.06855 3.75144 5.92237 4.79226C4.77618 5.83309 4.13226 7.24476 4.13226 8.71671V22.2834C4.13226 25.3513 6.86559 27.8334 10.2441 27.8334H25.184C26.805 27.8334 28.3595 27.2486 29.5057 26.2078C30.6519 25.167 31.2958 23.7553 31.2958 22.2834V8.71671C31.2958 5.64879 28.5625 3.16671 25.184 3.16671H10.2441ZM26.6271 5.47921C27.1899 5.47921 27.7297 5.68224 28.1277 6.04364C28.5257 6.40504 28.7492 6.8952 28.7492 7.40629C28.7492 7.91739 28.5257 8.40755 28.1277 8.76894C27.7297 9.13034 27.1899 9.33337 26.6271 9.33337C26.0643 9.33337 25.5245 9.13034 25.1265 8.76894C24.7285 8.40755 24.5049 7.91739 24.5049 7.40629C24.5049 6.8952 24.7285 6.40504 25.1265 6.04364C25.5245 5.68224 26.0643 5.47921 26.6271 5.47921ZM17.714 7.79171C19.9654 7.79171 22.1245 8.60383 23.7164 10.0494C25.3083 11.495 26.2027 13.4557 26.2027 15.5C26.2027 17.5444 25.3083 19.5051 23.7164 20.9507C22.1245 22.3962 19.9654 23.2084 17.714 23.2084C15.4627 23.2084 13.3036 22.3962 11.7117 20.9507C10.1198 19.5051 9.22543 17.5444 9.22543 15.5C9.22543 13.4557 10.1198 11.495 11.7117 10.0494C13.3036 8.60383 15.4627 7.79171 17.714 7.79171ZM17.714 10.875C16.3632 10.875 15.0678 11.3623 14.1126 12.2297C13.1575 13.097 12.6209 14.2734 12.6209 15.5C12.6209 16.7267 13.1575 17.9031 14.1126 18.7704C15.0678 19.6378 16.3632 20.125 17.714 20.125C19.0648 20.125 20.3603 19.6378 21.3155 18.7704C22.2706 17.9031 22.8072 16.7267 22.8072 15.5C22.8072 14.2734 22.2706 13.097 21.3155 12.2297C20.3603 11.3623 19.0648 10.875 17.714 10.875Z" fill="black"/>
</svg>
